<?xml version="1.0" standalone="no"?>
<!DOCTYPE svg PUBLIC "-//W3C//DTD SVG 20010904//EN"
 "http://www.w3.org/TR/2001/REC-SVG-20010904/DTD/svg10.dtd">
<svg version="1.0" xmlns="http://www.w3.org/2000/svg"
 width="512.000000pt" height="512.000000pt" viewBox="0 0 512.000000 512.000000"
 preserveAspectRatio="xMidYMid meet">
<metadata>
Created by potrace 1.11, written by Peter Selinger 2001-2013
</metadata>
<g transform="translate(0.000000,512.000000) scale(0.100000,-0.100000)"
fill="#000000" stroke="none">
<path d="M2344 4944 c-47 -16 -63 -33 -276 -294 -91 -113 -174 -214 -185 -225
-10 -11 -45 -52 -78 -90 -56 -65 -106 -123 -130 -149 -6 -6 -59 -67 -119 -136
-60 -69 -119 -134 -130 -146 -12 -12 -32 -34 -45 -50 -38 -46 -205 -238 -211
-244 -19 -16 -331 -404 -407 -505 -215 -288 -379 -548 -513 -815 -41 -82 -52
-114 -52 -152 0 -59 25 -104 72 -130 33 -17 57 -18 361 -16 l325 3 -4 -135
c-13 -339 -4 -1171 12 -1199 2 -3 7 -51 10 -106 4 -55 9 -109 11 -120 2 -11 7
-45 10 -75 3 -30 7 -64 10 -75 2 -11 4 -28 4 -37 2 -49 75 -85 133 -66 48 17
60 50 57 152 -6 175 -3 932 4 1071 14 276 19 351 22 390 25 310 24 384 -3 422
-40 57 -71 62 -371 64 -149 0 -271 3 -271 4 0 18 199 337 297 476 103 148 381
510 414 539 3 3 27 32 55 65 27 33 61 73 74 89 75 87 258 297 289 331 20 22
67 76 105 120 39 44 75 85 80 90 6 6 47 53 91 105 44 52 87 102 95 110 16 14
244 286 305 363 l30 38 155 -117 c239 -180 373 -297 615 -539 266 -265 473
-495 775 -860 41 -49 77 -92 80 -95 3 -3 44 -52 90 -110 46 -58 98 -121 115
-141 36 -42 44 -52 158 -191 66 -81 84 -108 70 -109 -10 0 -27 -3 -38 -6 -11
-2 -148 -7 -305 -9 -157 -3 -299 -7 -317 -10 -35 -5 -89 -53 -104 -92 -6 -15
-9 -259 -9 -596 0 -526 2 -634 15 -861 7 -129 7 -398 0 -425 -30 -116 14 -198
112 -207 77 -7 135 45 174 158 19 55 22 84 21 209 -1 80 -3 155 -6 167 -17 78
-27 1353 -11 1354 5 0 75 2 155 4 137 3 266 11 338 21 17 2 49 6 70 9 114 16
246 49 279 71 44 28 68 100 52 158 -9 32 -61 110 -99 146 -3 3 -39 46 -80 95
-41 50 -77 92 -80 95 -3 3 -46 55 -95 115 -106 131 -518 627 -556 670 -14 17
-94 107 -176 200 -248 282 -516 554 -723 735 -41 36 -77 67 -80 70 -20 22
-235 192 -325 257 -247 179 -272 191 -341 167z"/>
<path d="M2975 3135 c-199 -46 -420 -259 -556 -537 -18 -38 -36 -68 -39 -68
-3 0 -32 27 -64 60 -228 235 -466 294 -646 159 -101 -76 -188 -216 -230 -372
-25 -88 -34 -258 -20 -338 4 -24 10 -62 14 -84 27 -198 180 -503 375 -750 53
-67 254 -274 316 -325 106 -88 212 -159 246 -165 55 -11 109 41 109 104 l0 30
36 -24 c20 -14 42 -25 48 -26 6 -1 23 -2 38 -3 48 -5 101 27 143 85 396 550
591 876 705 1184 76 204 99 325 95 495 -3 145 -22 218 -82 318 -118 194 -313
297 -488 257z m164 -314 c35 -25 75 -88 89 -143 10 -36 9 -37 -9 -27 -22 12
-176 118 -228 158 l-34 26 44 10 c52 13 96 5 138 -24z m-243 -100 c12 -11 62
-50 110 -87 232 -176 243 -185 239 -206 -3 -12 -6 -23 -9 -25 -5 -6 -129 81
-295 208 l-139 106 21 21 c22 23 35 20 73 -17z m-76 -155 c19 -17 69 -60 110
-95 41 -36 100 -88 130 -118 30 -29 64 -60 75 -68 11 -9 -25 7 -80 35 -88 44
-210 128 -329 225 l-36 30 22 31 22 32 26 -20 c14 -11 41 -34 60 -52z m-794
-47 c50 -30 169 -159 148 -159 -6 0 -101 75 -179 142 -11 10 -29 24 -40 33
-19 16 -19 16 10 10 17 -4 44 -15 61 -26z m-37 -153 c194 -192 210 -206 301
-286 41 -36 77 -67 80 -70 3 -3 54 -45 114 -92 117 -94 266 -197 358 -248 68
-37 73 -43 57 -68 -12 -18 -17 -16 -98 36 -128 83 -301 208 -536 387 -242 184
-213 161 -335 262 -158 131 -173 148 -160 173 15 27 42 58 54 59 4 1 79 -68
165 -153z m721 43 c8 -8 215 -182 237 -199 55 -42 138 -85 181 -95 36 -7 36
-10 6 -82 -13 -30 -17 -32 -37 -22 -12 6 -29 17 -37 24 -8 7 -46 29 -85 50
-84 45 -247 153 -295 195 -19 18 -46 39 -58 47 -26 18 -26 39 3 107 l16 38 32
-28 c17 -16 34 -31 37 -35z m-921 -101 c105 -125 202 -219 451 -439 52 -46 97
-86 100 -89 24 -26 198 -175 245 -209 63 -46 92 -70 65 -56 -35 20 -302 204
-375 259 -115 86 -257 207 -355 302 -47 46 -111 108 -143 138 l-59 55 7 51 c4
27 8 50 9 50 2 0 26 -28 55 -62z m1009 -290 c52 -39 129 -89 171 -111 42 -22
77 -41 79 -43 5 -3 -37 -82 -47 -88 -8 -5 -83 42 -438 275 -55 36 -62 49 -38
69 8 7 20 30 26 50 l12 39 70 -60 c38 -34 112 -92 165 -131z m-947 -1 c114
-113 177 -172 363 -342 163 -148 305 -266 390 -323 38 -26 73 -50 78 -53 4 -3
2 -14 -6 -24 -12 -17 -24 -11 -186 105 -95 68 -212 156 -259 195 -99 83 -288
269 -410 403 -46 50 -87 89 -92 86 -5 -3 -9 8 -9 25 0 16 -3 36 -6 45 -3 9 -4
16 -1 16 2 0 65 -60 138 -133z m-20 -174 c41 -49 83 -99 94 -112 132 -157 455
-465 593 -564 54 -40 60 -64 13 -52 -111 27 -327 164 -547 347 -73 60 -86 76
-122 152 -51 105 -123 316 -109 316 2 0 37 -39 78 -87z m958 -400 c3 -2 0 -8
-5 -13 -7 -7 -28 3 -62 28 -28 20 -52 40 -52 44 0 6 103 -45 119 -59z m-530
-337 c41 -31 105 -71 142 -89 58 -27 67 -35 62 -52 -3 -11 -6 -32 -5 -47 1
-27 -2 -26 -71 34 -101 86 -203 186 -240 233 l-31 40 35 -31 c19 -17 67 -57
108 -88z"/>
</g>
</svg>
